<?xml version="1.0" encoding="UTF-8" standalone="no"?>
<!DOCTYPE svg PUBLIC "-//W3C//DTD SVG 1.1//EN"
 "http://www.w3.org/Graphics/SVG/1.1/DTD/svg11.dtd">
<!-- Generated by graphviz version 14.1.2 (0)
 -->
<!-- Title: sourcetree Pages: 1 -->
<svg width="240pt" height="188pt"
 viewBox="0.00 0.00 240.00 188.00" xmlns="http://www.w3.org/2000/svg" xmlns:xlink="http://www.w3.org/1999/xlink">
<g id="graph0" class="graph" transform="scale(1 1) rotate(0) translate(4 184)">
<title>sourcetree</title>
<polygon fill="white" stroke="none" points="-4,4 -4,-184 236.12,-184 236.12,4 -4,4"/>
<!-- mulle&#45;buffer -->
<g id="node1" class="node">
<title>mulle&#45;buffer</title>
<polygon fill="yellow" stroke="black" points="174.75,-180 71.75,-180 71.75,-144 174.75,-144 174.75,-180"/>
<text xml:space="preserve" text-anchor="middle" x="123.25" y="-157.32" font-family="Times,serif" font-size="14.00">mulle&#45;buffer</text>
</g>
<!-- mulle&#45;allocator -->
<g id="node2" class="node">
<title>mulle&#45;allocator</title>
<g id="a_node2"><a xlink:href="https://github.com/mulle-c/mulle-allocator" xlink:title="mulle&#45;allocator">
<polygon fill="lightgrey" stroke="black" points="122.5,-108 0,-108 0,-72 122.5,-72 122.5,-108"/>
<text xml:space="preserve" text-anchor="middle" x="61.25" y="-85.33" font-family="Times,serif" font-size="14.00">mulle&#45;allocator</text>
</a>
</g>
</g>
<!-- mulle&#45;buffer&#45;&gt;mulle&#45;allocator -->
<g id="edge2" class="edge">
<title>mulle&#45;buffer&#45;&gt;mulle&#45;allocator</title>
<path fill="none" stroke="black" d="M107.92,-143.7C100.72,-135.56 91.97,-125.69 84.01,-116.7"/>
<polygon fill="black" stroke="black" points="86.65,-114.4 77.4,-109.24 81.41,-119.04 86.65,-114.4"/>
</g>
<!-- mulle&#45;data -->
<g id="node4" class="node">
<title>mulle&#45;data</title>
<g id="a_node4"><a xlink:href="https://github.com/mulle-c/mulle-data" xlink:title="mulle&#45;data">
<polygon fill="lightgrey" stroke="black" points="232.12,-108 140.38,-108 140.38,-72 232.12,-72 232.12,-108"/>
<text xml:space="preserve" text-anchor="middle" x="186.25" y="-85.33" font-family="Times,serif" font-size="14.00">mulle&#45;data</text>
</a>
</g>
</g>
<!-- mulle&#45;buffer&#45;&gt;mulle&#45;data -->
<g id="edge3" class="edge">
<title>mulle&#45;buffer&#45;&gt;mulle&#45;data</title>
<path fill="none" stroke="black" d="M138.82,-143.7C146.22,-135.47 155.22,-125.48 163.37,-116.42"/>
<polygon fill="black" stroke="black" points="165.76,-119 169.84,-109.23 160.55,-114.32 165.76,-119"/>
</g>
<!-- mulle&#45;c11 -->
<g id="node3" class="node">
<title>mulle&#45;c11</title>
<g id="a_node3"><a xlink:href="https://github.com/mulle-c/mulle-c11" xlink:title="mulle&#45;c11">
<polygon fill="lightgrey" stroke="black" points="104.12,-36 18.38,-36 18.38,0 104.12,0 104.12,-36"/>
<text xml:space="preserve" text-anchor="middle" x="61.25" y="-13.32" font-family="Times,serif" font-size="14.00">mulle&#45;c11</text>
</a>
</g>
</g>
<!-- mulle&#45;allocator&#45;&gt;mulle&#45;c11 -->
<g id="edge1" class="edge">
<title>mulle&#45;allocator&#45;&gt;mulle&#45;c11</title>
<path fill="none" stroke="black" d="M61.25,-71.7C61.25,-64.41 61.25,-55.73 61.25,-47.54"/>
<polygon fill="black" stroke="black" points="64.75,-47.62 61.25,-37.62 57.75,-47.62 64.75,-47.62"/>
</g>
<!-- xxhash.h -->
<g id="node5" class="node">
<title>xxhash.h</title>
<g id="a_node5"><a xlink:href="https://raw.githubusercontent.com/mulle-c/xxHash" xlink:title="xxhash.h">
<polygon fill="lightgrey" stroke="black" points="226.12,-36 146.38,-36 146.38,0 226.12,0 226.12,-36"/>
<text xml:space="preserve" text-anchor="middle" x="186.25" y="-13.32" font-family="Times,serif" font-size="14.00">xxhash.h</text>
</a>
</g>
</g>
<!-- mulle&#45;data&#45;&gt;xxhash.h -->
<g id="edge4" class="edge">
<title>mulle&#45;data&#45;&gt;xxhash.h</title>
<path fill="none" stroke="black" d="M186.25,-71.7C186.25,-64.41 186.25,-55.73 186.25,-47.54"/>
<polygon fill="black" stroke="black" points="189.75,-47.62 186.25,-37.62 182.75,-47.62 189.75,-47.62"/>
</g>
</g>
</svg>
