<?xml version="1.0" encoding="UTF-8" standalone="no"?>
<!DOCTYPE svg PUBLIC "-//W3C//DTD SVG 1.1//EN"
 "http://www.w3.org/Graphics/SVG/1.1/DTD/svg11.dtd">
<!-- Generated by graphviz version 2.43.0 (0)
 -->
<!-- Title: sourcetree Pages: 1 -->
<svg width="242pt" height="116pt"
 viewBox="0.00 0.00 241.50 116.00" xmlns="http://www.w3.org/2000/svg" xmlns:xlink="http://www.w3.org/1999/xlink">
<g id="graph0" class="graph" transform="scale(1 1) rotate(0) translate(4 112)">
<title>sourcetree</title>
<polygon fill="white" stroke="transparent" points="-4,4 -4,-112 237.5,-112 237.5,4 -4,4"/>
<!-- mulle&#45;buffer -->
<g id="node1" class="node">
<title>mulle&#45;buffer</title>
<polygon fill="yellow" stroke="black" points="176.5,-108 72.5,-108 72.5,-72 176.5,-72 176.5,-108"/>
<text text-anchor="middle" x="124.5" y="-86.3" font-family="Times,serif" font-size="14.00">mulle&#45;buffer</text>
</g>
<!-- mulle&#45;allocator -->
<g id="node2" class="node">
<title>mulle&#45;allocator</title>
<polygon fill="lightgrey" stroke="black" points="123,-36 0,-36 0,0 123,0 123,-36"/>
<text text-anchor="middle" x="61.5" y="-14.3" font-family="Times,serif" font-size="14.00">mulle&#45;allocator</text>
</g>
<!-- mulle&#45;buffer&#45;&gt;mulle&#45;allocator -->
<g id="edge1" class="edge">
<title>mulle&#45;buffer&#45;&gt;mulle&#45;allocator</title>
<path fill="none" stroke="black" d="M108.93,-71.7C101.3,-63.22 91.98,-52.86 83.62,-43.58"/>
<polygon fill="black" stroke="black" points="86.19,-41.2 76.89,-36.1 80.98,-45.88 86.19,-41.2"/>
</g>
<!-- mulle&#45;data -->
<g id="node3" class="node">
<title>mulle&#45;data</title>
<polygon fill="lightgrey" stroke="black" points="233.5,-36 141.5,-36 141.5,0 233.5,0 233.5,-36"/>
<text text-anchor="middle" x="187.5" y="-14.3" font-family="Times,serif" font-size="14.00">mulle&#45;data</text>
</g>
<!-- mulle&#45;buffer&#45;&gt;mulle&#45;data -->
<g id="edge2" class="edge">
<title>mulle&#45;buffer&#45;&gt;mulle&#45;data</title>
<path fill="none" stroke="black" d="M140.07,-71.7C147.7,-63.22 157.02,-52.86 165.38,-43.58"/>
<polygon fill="black" stroke="black" points="168.02,-45.88 172.11,-36.1 162.81,-41.2 168.02,-45.88"/>
</g>
</g>
</svg>
