<?xml version="1.0" encoding="UTF-8" standalone="no"?>
<!DOCTYPE svg PUBLIC "-//W3C//DTD SVG 1.1//EN"
 "http://www.w3.org/Graphics/SVG/1.1/DTD/svg11.dtd">
<!-- Generated by graphviz version 2.43.0 (0)
 -->
<!-- Title: sourcetree Pages: 1 -->
<svg width="244pt" height="188pt"
 viewBox="0.00 0.00 243.50 188.00" xmlns="http://www.w3.org/2000/svg" xmlns:xlink="http://www.w3.org/1999/xlink">
<g id="graph0" class="graph" transform="scale(1 1) rotate(0) translate(4 184)">
<title>sourcetree</title>
<polygon fill="white" stroke="transparent" points="-4,4 -4,-184 239.5,-184 239.5,4 -4,4"/>
<!-- mulle&#45;buffer -->
<g id="node1" class="node">
<title>mulle&#45;buffer</title>
<polygon fill="yellow" stroke="black" points="176.5,-180 72.5,-180 72.5,-144 176.5,-144 176.5,-180"/>
<text text-anchor="middle" x="124.5" y="-158.3" font-family="Times,serif" font-size="14.00">mulle&#45;buffer</text>
</g>
<!-- mulle&#45;allocator -->
<g id="node3" class="node">
<title>mulle&#45;allocator</title>
<g id="a_node3"><a xlink:href="https://github.com/mulle-c/mulle-allocator" xlink:title="mulle&#45;allocator">
<polygon fill="lightgrey" stroke="black" points="123,-108 0,-108 0,-72 123,-72 123,-108"/>
<text text-anchor="middle" x="61.5" y="-86.3" font-family="Times,serif" font-size="14.00">mulle&#45;allocator</text>
</a>
</g>
</g>
<!-- mulle&#45;buffer&#45;&gt;mulle&#45;allocator -->
<g id="edge2" class="edge">
<title>mulle&#45;buffer&#45;&gt;mulle&#45;allocator</title>
<path fill="none" stroke="black" d="M108.93,-143.7C101.3,-135.22 91.98,-124.86 83.62,-115.58"/>
<polygon fill="black" stroke="black" points="86.19,-113.2 76.89,-108.1 80.98,-117.88 86.19,-113.2"/>
</g>
<!-- mulle&#45;data -->
<g id="node5" class="node">
<title>mulle&#45;data</title>
<g id="a_node5"><a xlink:href="https://github.com/mulle-c/mulle-data" xlink:title="mulle&#45;data">
<polygon fill="lightgrey" stroke="black" points="233.5,-108 141.5,-108 141.5,-72 233.5,-72 233.5,-108"/>
<text text-anchor="middle" x="187.5" y="-86.3" font-family="Times,serif" font-size="14.00">mulle&#45;data</text>
</a>
</g>
</g>
<!-- mulle&#45;buffer&#45;&gt;mulle&#45;data -->
<g id="edge3" class="edge">
<title>mulle&#45;buffer&#45;&gt;mulle&#45;data</title>
<path fill="none" stroke="black" d="M140.07,-143.7C147.7,-135.22 157.02,-124.86 165.38,-115.58"/>
<polygon fill="black" stroke="black" points="168.02,-117.88 172.11,-108.1 162.81,-113.2 168.02,-117.88"/>
</g>
<!-- farmhash&#45;c -->
<g id="node2" class="node">
<title>farmhash&#45;c</title>
<g id="a_node2"><a xlink:href="https://github.com/mulle-c/farmhash-c@*" xlink:title="farmhash&#45;c">
<polygon fill="lightgrey" stroke="black" points="235.5,-36 139.5,-36 139.5,0 235.5,0 235.5,-36"/>
<text text-anchor="middle" x="187.5" y="-14.3" font-family="Times,serif" font-size="14.00">farmhash&#45;c</text>
</a>
</g>
</g>
<!-- mulle&#45;c11 -->
<g id="node4" class="node">
<title>mulle&#45;c11</title>
<g id="a_node4"><a xlink:href="https://github.com/mulle-c/mulle-c11" xlink:title="mulle&#45;c11">
<polygon fill="lightgrey" stroke="black" points="104.5,-36 18.5,-36 18.5,0 104.5,0 104.5,-36"/>
<text text-anchor="middle" x="61.5" y="-14.3" font-family="Times,serif" font-size="14.00">mulle&#45;c11</text>
</a>
</g>
</g>
<!-- mulle&#45;allocator&#45;&gt;mulle&#45;c11 -->
<g id="edge1" class="edge">
<title>mulle&#45;allocator&#45;&gt;mulle&#45;c11</title>
<path fill="none" stroke="black" d="M61.5,-71.7C61.5,-63.98 61.5,-54.71 61.5,-46.11"/>
<polygon fill="black" stroke="black" points="65,-46.1 61.5,-36.1 58,-46.1 65,-46.1"/>
</g>
<!-- mulle&#45;data&#45;&gt;farmhash&#45;c -->
<g id="edge4" class="edge">
<title>mulle&#45;data&#45;&gt;farmhash&#45;c</title>
<path fill="none" stroke="black" d="M187.5,-71.7C187.5,-63.98 187.5,-54.71 187.5,-46.11"/>
<polygon fill="black" stroke="black" points="191,-46.1 187.5,-36.1 184,-46.1 191,-46.1"/>
</g>
</g>
</svg>
