<?xml version="1.0" encoding="UTF-8" standalone="no"?>
<!DOCTYPE svg PUBLIC "-//W3C//DTD SVG 1.1//EN"
 "http://www.w3.org/Graphics/SVG/1.1/DTD/svg11.dtd">
<!-- Generated by graphviz version 2.43.0 (0)
 -->
<!-- Title: %3 Pages: 1 -->
<svg width="502pt" height="282pt"
 viewBox="0.00 0.00 502.00 282.00" xmlns="http://www.w3.org/2000/svg" xmlns:xlink="http://www.w3.org/1999/xlink">
<g id="graph0" class="graph" transform="scale(1 1) rotate(0) translate(4 278)">
<title>%3</title>
<polygon fill="white" stroke="transparent" points="-4,4 -4,-278 498,-278 498,4 -4,4"/>
<g id="clust1" class="cluster">
<title>cluster_main</title>
<polygon fill="none" stroke="black" points="8,-8 8,-266 486,-266 486,-8 8,-8"/>
</g>
<!-- mulle__pointerarray -->
<g id="node1" class="node">
<title>mulle__pointerarray</title>
<polygon fill="blue" stroke="transparent" points="27,-207 27,-228 395,-228 395,-207 27,-207"/>
<polygon fill="none" stroke="black" points="27,-207 27,-228 395,-228 395,-207 27,-207"/>
<text text-anchor="start" x="166" y="-213.8" font-family="Times,serif" font-size="14.00" fill="white">mulle_buffer</text>
<polygon fill="black" stroke="transparent" points="27,-184 27,-205 142,-205 142,-184 27,-184"/>
<polygon fill="none" stroke="black" points="27,-184 27,-205 142,-205 142,-184 27,-184"/>
<text text-anchor="start" x="54" y="-190.8" font-family="Times,serif" font-size="14.00" fill="white">_storage</text>
<polygon fill="none" stroke="black" points="144,-184 144,-205 395,-205 395,-184 144,-184"/>
<polygon fill="black" stroke="transparent" points="27,-161 27,-182 142,-182 142,-161 27,-161"/>
<polygon fill="none" stroke="black" points="27,-161 27,-182 142,-182 142,-161 27,-161"/>
<text text-anchor="start" x="66" y="-167.8" font-family="Times,serif" font-size="14.00" fill="white">_curr</text>
<polygon fill="none" stroke="black" points="144,-161 144,-182 395,-182 395,-161 144,-161"/>
<polygon fill="black" stroke="transparent" points="27,-138 27,-159 142,-159 142,-138 27,-138"/>
<polygon fill="none" stroke="black" points="27,-138 27,-159 142,-159 142,-138 27,-138"/>
<text text-anchor="start" x="52.5" y="-144.8" font-family="Times,serif" font-size="14.00" fill="white">_sentinel</text>
<polygon fill="none" stroke="black" points="144,-138 144,-159 395,-159 395,-138 144,-138"/>
<polygon fill="black" stroke="transparent" points="27,-115 27,-136 142,-136 142,-115 27,-115"/>
<polygon fill="none" stroke="black" points="27,-115 27,-136 142,-136 142,-115 27,-115"/>
<text text-anchor="start" x="30" y="-121.8" font-family="Times,serif" font-size="14.00" fill="white">_initial_storage</text>
<polygon fill="none" stroke="black" points="144,-115 144,-136 395,-136 395,-115 144,-115"/>
<polygon fill="black" stroke="transparent" points="27,-92 27,-113 142,-113 142,-92 27,-92"/>
<polygon fill="none" stroke="black" points="27,-92 27,-113 142,-113 142,-92 27,-92"/>
<text text-anchor="start" x="65" y="-98.8" font-family="Times,serif" font-size="14.00" fill="white">_type</text>
<polygon fill="none" stroke="black" points="144,-92 144,-113 395,-113 395,-92 144,-92"/>
<text text-anchor="start" x="147" y="-98.8" font-family="Times,serif" font-size="14.00">MULLE_BUFFER_IS_INFLEXIBLE</text>
<polygon fill="black" stroke="transparent" points="27,-69 27,-90 142,-90 142,-69 27,-69"/>
<polygon fill="none" stroke="black" points="27,-69 27,-90 142,-90 142,-69 27,-69"/>
<text text-anchor="start" x="67" y="-75.8" font-family="Times,serif" font-size="14.00" fill="white">_size</text>
<polygon fill="none" stroke="black" points="144,-69 144,-90 395,-90 395,-69 144,-69"/>
<text text-anchor="start" x="264.5" y="-75.8" font-family="Times,serif" font-size="14.00">4</text>
<polygon fill="black" stroke="transparent" points="27,-46 27,-67 142,-67 142,-46 27,-46"/>
<polygon fill="none" stroke="black" points="27,-46 27,-67 142,-67 142,-46 27,-46"/>
<text text-anchor="start" x="49.5" y="-52.8" font-family="Times,serif" font-size="14.00" fill="white">_allocator</text>
<polygon fill="none" stroke="black" points="144,-46 144,-67 395,-67 395,-46 144,-46"/>
<text text-anchor="start" x="180" y="-52.8" font-family="Times,serif" font-size="14.00">&amp;mulle_default_allocator</text>
<polygon fill="none" stroke="black" points="24,-43 24,-231 398,-231 398,-43 24,-43"/>
</g>
<!-- alloca -->
<g id="node2" class="node">
<title>alloca</title>
<polygon fill="yellow" stroke="transparent" points="443,-230 443,-251 459,-251 459,-230 443,-230"/>
<polygon fill="none" stroke="black" points="443,-230 443,-251 459,-251 459,-230 443,-230"/>
<text text-anchor="start" x="446" y="-236.8" font-family="Times,serif" font-size="14.00">V</text>
<polygon fill="yellow" stroke="transparent" points="443,-207 443,-228 459,-228 459,-207 443,-207"/>
<polygon fill="none" stroke="black" points="443,-207 443,-228 459,-228 459,-207 443,-207"/>
<text text-anchor="start" x="448" y="-213.8" font-family="Times,serif" font-size="14.00">f</text>
<polygon fill="yellow" stroke="transparent" points="443,-184 443,-205 459,-205 459,-184 443,-184"/>
<polygon fill="none" stroke="black" points="443,-184 443,-205 459,-205 459,-184 443,-184"/>
<text text-anchor="start" x="446" y="-190.8" font-family="Times,serif" font-size="14.00">L</text>
<polygon fill="yellow" stroke="transparent" points="443,-161 443,-182 459,-182 459,-161 443,-161"/>
<polygon fill="none" stroke="black" points="443,-161 443,-182 459,-182 459,-161 443,-161"/>
<text text-anchor="start" x="447.5" y="-167.8" font-family="Times,serif" font-size="14.00">_</text>
<polygon fill="papayawhip" stroke="transparent" points="443,-138 443,-159 459,-159 459,-138 443,-138"/>
<polygon fill="none" stroke="black" points="443,-138 443,-159 459,-159 459,-138 443,-138"/>
<text text-anchor="start" x="448.5" y="-144.8" font-family="Times,serif" font-size="14.00"> </text>
<polygon fill="papayawhip" stroke="transparent" points="443,-115 443,-136 459,-136 459,-115 443,-115"/>
<polygon fill="none" stroke="black" points="443,-115 443,-136 459,-136 459,-115 443,-115"/>
<text text-anchor="start" x="448.5" y="-121.8" font-family="Times,serif" font-size="14.00"> </text>
<polygon fill="papayawhip" stroke="transparent" points="443,-92 443,-113 459,-113 459,-92 443,-92"/>
<polygon fill="none" stroke="black" points="443,-92 443,-113 459,-113 459,-92 443,-92"/>
<text text-anchor="start" x="448.5" y="-98.8" font-family="Times,serif" font-size="14.00"> </text>
<polygon fill="papayawhip" stroke="transparent" points="443,-69 443,-90 459,-90 459,-69 443,-69"/>
<polygon fill="none" stroke="black" points="443,-69 443,-90 459,-90 459,-69 443,-69"/>
<text text-anchor="start" x="448.5" y="-75.8" font-family="Times,serif" font-size="14.00"> </text>
<polygon fill="gray" stroke="transparent" points="443,-46 443,-67 459,-67 459,-46 443,-46"/>
<polygon fill="none" stroke="black" points="443,-46 443,-67 459,-67 459,-46 443,-46"/>
<text text-anchor="start" x="448.5" y="-52.8" font-family="Times,serif" font-size="14.00" fill="gray"> </text>
<polygon fill="gray" stroke="transparent" points="443,-23 443,-44 459,-44 459,-23 443,-23"/>
<polygon fill="none" stroke="black" points="443,-23 443,-44 459,-44 459,-23 443,-23"/>
<text text-anchor="start" x="448.5" y="-29.8" font-family="Times,serif" font-size="14.00" fill="gray"> </text>
<polygon fill="none" stroke="black" points="440,-20 440,-254 462,-254 462,-20 440,-20"/>
</g>
<!-- mulle__pointerarray&#45;&gt;alloca -->
<g id="edge1" class="edge">
<title>mulle__pointerarray:_&#45;&gt;alloca:cell0</title>
<path fill="none" stroke="black" d="M404.13,-196.53C419.89,-203.27 417.68,-230.29 432.08,-238.58"/>
<ellipse fill="black" stroke="black" cx="399.93" cy="-195.74" rx="4" ry="4"/>
<polygon fill="black" stroke="black" points="442,-241 431.22,-243 437.14,-239.81 432.29,-238.63 432.29,-238.63 432.29,-238.63 437.14,-239.81 433.35,-234.26 442,-241 442,-241"/>
</g>
<!-- mulle__pointerarray&#45;&gt;alloca -->
<g id="edge2" class="edge">
<title>mulle__pointerarray:_&#45;&gt;alloca:cell0</title>
<path fill="none" stroke="black" d="M404.06,-126C441.7,-136.5 397.23,-226.12 432.02,-239.37"/>
<ellipse fill="black" stroke="black" cx="399.97" cy="-125.49" rx="4" ry="4"/>
<polygon fill="black" stroke="black" points="442,-241 431.4,-243.83 437.07,-240.19 432.13,-239.39 432.13,-239.39 432.13,-239.39 437.07,-240.19 432.86,-234.94 442,-241 442,-241"/>
</g>
<!-- mulle__pointerarray&#45;&gt;alloca -->
<g id="edge3" class="edge">
<title>mulle__pointerarray:_&#45;&gt;alloca:past_sentinel</title>
<path fill="none" stroke="black" d="M404.2,-171.11C450.43,-160.01 388.69,-48.34 431.9,-34.42"/>
<ellipse fill="black" stroke="black" cx="399.98" cy="-171.57" rx="4" ry="4"/>
<polygon fill="black" stroke="black" points="442,-33 432.72,-38.85 437.05,-33.7 432.1,-34.39 432.1,-34.39 432.1,-34.39 437.05,-33.7 431.47,-29.94 442,-33 442,-33"/>
</g>
<!-- mulle__pointerarray&#45;&gt;alloca -->
<g id="edge4" class="edge">
<title>mulle__pointerarray:_&#45;&gt;alloca:sentinel</title>
<path fill="none" stroke="black" d="M404.02,-147.82C433.35,-138.07 405.35,-70.58 431.89,-58.01"/>
<ellipse fill="black" stroke="black" cx="399.96" cy="-148.42" rx="4" ry="4"/>
<polygon fill="black" stroke="black" points="442,-56 433.07,-62.37 437.1,-56.98 432.19,-57.95 432.19,-57.95 432.19,-57.95 437.1,-56.98 431.31,-53.54 442,-56 442,-56"/>
</g>
</g>
</svg>
