<?xml version="1.0" encoding="UTF-8" standalone="no"?>
<!DOCTYPE svg PUBLIC "-//W3C//DTD SVG 1.1//EN"
 "http://www.w3.org/Graphics/SVG/1.1/DTD/svg11.dtd">
<!-- Generated by graphviz version 2.43.0 (0)
 -->
<!-- Title: %3 Pages: 1 -->
<svg width="485pt" height="298pt"
 viewBox="0.00 0.00 485.00 298.00" xmlns="http://www.w3.org/2000/svg" xmlns:xlink="http://www.w3.org/1999/xlink">
<g id="graph0" class="graph" transform="scale(1 1) rotate(0) translate(4 294)">
<title>%3</title>
<polygon fill="white" stroke="transparent" points="-4,4 -4,-294 481,-294 481,4 -4,4"/>
<g id="clust1" class="cluster">
<title>cluster_main</title>
<polygon fill="none" stroke="black" points="8,-46 8,-282 469,-282 469,-46 8,-46"/>
</g>
<!-- legend -->
<g id="node1" class="node">
<title>legend</title>
<text text-anchor="middle" x="202.5" y="-13" font-family="Arial Bold" font-size="20.00" fill="gray">Heap</text>
</g>
<!-- mulle__pointerarray -->
<g id="node2" class="node">
<title>mulle__pointerarray</title>
<polygon fill="blue" stroke="transparent" points="27.5,-222 27.5,-243 378.5,-243 378.5,-222 27.5,-222"/>
<polygon fill="none" stroke="black" points="27.5,-222 27.5,-243 378.5,-243 378.5,-222 27.5,-222"/>
<text text-anchor="start" x="158" y="-228.8" font-family="Times,serif" font-size="14.00" fill="white">mulle_buffer</text>
<polygon fill="black" stroke="transparent" points="27.5,-199 27.5,-220 142.5,-220 142.5,-199 27.5,-199"/>
<polygon fill="none" stroke="black" points="27.5,-199 27.5,-220 142.5,-220 142.5,-199 27.5,-199"/>
<text text-anchor="start" x="54.5" y="-205.8" font-family="Times,serif" font-size="14.00" fill="white">_storage</text>
<polygon fill="none" stroke="black" points="144.5,-199 144.5,-220 378.5,-220 378.5,-199 144.5,-199"/>
<polygon fill="black" stroke="transparent" points="27.5,-176 27.5,-197 142.5,-197 142.5,-176 27.5,-176"/>
<polygon fill="none" stroke="black" points="27.5,-176 27.5,-197 142.5,-197 142.5,-176 27.5,-176"/>
<text text-anchor="start" x="66.5" y="-182.8" font-family="Times,serif" font-size="14.00" fill="white">_curr</text>
<polygon fill="none" stroke="black" points="144.5,-176 144.5,-197 378.5,-197 378.5,-176 144.5,-176"/>
<polygon fill="black" stroke="transparent" points="27.5,-153 27.5,-174 142.5,-174 142.5,-153 27.5,-153"/>
<polygon fill="none" stroke="black" points="27.5,-153 27.5,-174 142.5,-174 142.5,-153 27.5,-153"/>
<text text-anchor="start" x="53" y="-159.8" font-family="Times,serif" font-size="14.00" fill="white">_sentinel</text>
<polygon fill="none" stroke="black" points="144.5,-153 144.5,-174 378.5,-174 378.5,-153 144.5,-153"/>
<polygon fill="black" stroke="transparent" points="27.5,-130 27.5,-151 142.5,-151 142.5,-130 27.5,-130"/>
<polygon fill="none" stroke="black" points="27.5,-130 27.5,-151 142.5,-151 142.5,-130 27.5,-130"/>
<text text-anchor="start" x="30.5" y="-136.8" font-family="Times,serif" font-size="14.00" fill="white">_initial_storage</text>
<polygon fill="none" stroke="black" points="144.5,-130 144.5,-151 378.5,-151 378.5,-130 144.5,-130"/>
<text text-anchor="start" x="240" y="-136.8" font-family="Times,serif" font-size="14.00">NULL</text>
<polygon fill="black" stroke="transparent" points="27.5,-107 27.5,-128 142.5,-128 142.5,-107 27.5,-107"/>
<polygon fill="none" stroke="black" points="27.5,-107 27.5,-128 142.5,-128 142.5,-107 27.5,-107"/>
<text text-anchor="start" x="65.5" y="-113.8" font-family="Times,serif" font-size="14.00" fill="white">_type</text>
<polygon fill="none" stroke="black" points="144.5,-107 144.5,-128 378.5,-128 378.5,-107 144.5,-107"/>
<text text-anchor="start" x="147.5" y="-113.8" font-family="Times,serif" font-size="14.00">MULLE_BUFFER_IS_FLEXIBLE</text>
<polygon fill="black" stroke="transparent" points="27.5,-84 27.5,-105 142.5,-105 142.5,-84 27.5,-84"/>
<polygon fill="none" stroke="black" points="27.5,-84 27.5,-105 142.5,-105 142.5,-84 27.5,-84"/>
<text text-anchor="start" x="67.5" y="-90.8" font-family="Times,serif" font-size="14.00" fill="white">_size</text>
<polygon fill="none" stroke="black" points="144.5,-84 144.5,-105 378.5,-105 378.5,-84 144.5,-84"/>
<text text-anchor="start" x="256.5" y="-90.8" font-family="Times,serif" font-size="14.00">0</text>
<polygon fill="black" stroke="transparent" points="27.5,-61 27.5,-82 142.5,-82 142.5,-61 27.5,-61"/>
<polygon fill="none" stroke="black" points="27.5,-61 27.5,-82 142.5,-82 142.5,-61 27.5,-61"/>
<text text-anchor="start" x="50" y="-67.8" font-family="Times,serif" font-size="14.00" fill="white">_allocator</text>
<polygon fill="none" stroke="black" points="144.5,-61 144.5,-82 378.5,-82 378.5,-61 144.5,-61"/>
<text text-anchor="start" x="172" y="-67.8" font-family="Times,serif" font-size="14.00">&amp;mulle_default_allocator</text>
<polygon fill="none" stroke="black" points="24,-58 24,-246 381,-246 381,-58 24,-58"/>
</g>
<!-- alloca -->
<g id="node3" class="node">
<title>alloca</title>
<polygon fill="yellow" stroke="transparent" points="426,-245 426,-266 442,-266 442,-245 426,-245"/>
<polygon fill="none" stroke="black" points="426,-245 426,-266 442,-266 442,-245 426,-245"/>
<text text-anchor="start" x="429" y="-251.8" font-family="Times,serif" font-size="14.00">V</text>
<polygon fill="yellow" stroke="transparent" points="426,-222 426,-243 442,-243 442,-222 426,-222"/>
<polygon fill="none" stroke="black" points="426,-222 426,-243 442,-243 442,-222 426,-222"/>
<text text-anchor="start" x="431" y="-228.8" font-family="Times,serif" font-size="14.00">f</text>
<polygon fill="yellow" stroke="transparent" points="426,-199 426,-220 442,-220 442,-199 426,-199"/>
<polygon fill="none" stroke="black" points="426,-199 426,-220 442,-220 442,-199 426,-199"/>
<text text-anchor="start" x="429" y="-205.8" font-family="Times,serif" font-size="14.00">L</text>
<polygon fill="yellow" stroke="transparent" points="426,-176 426,-197 442,-197 442,-176 426,-176"/>
<polygon fill="none" stroke="black" points="426,-176 426,-197 442,-197 442,-176 426,-176"/>
<text text-anchor="start" x="430.5" y="-182.8" font-family="Times,serif" font-size="14.00">_</text>
<polygon fill="white" stroke="transparent" points="426,-153 426,-174 442,-174 442,-153 426,-153"/>
<polygon fill="none" stroke="black" points="426,-153 426,-174 442,-174 442,-153 426,-153"/>
<text text-anchor="start" x="431.5" y="-159.8" font-family="Times,serif" font-size="14.00"> </text>
<polygon fill="white" stroke="transparent" points="426,-130 426,-151 442,-151 442,-130 426,-130"/>
<polygon fill="none" stroke="black" points="426,-130 426,-151 442,-151 442,-130 426,-130"/>
<text text-anchor="start" x="431.5" y="-136.8" font-family="Times,serif" font-size="14.00"> </text>
<polygon fill="white" stroke="transparent" points="426,-107 426,-128 442,-128 442,-107 426,-107"/>
<polygon fill="none" stroke="black" points="426,-107 426,-128 442,-128 442,-107 426,-107"/>
<text text-anchor="start" x="431.5" y="-113.8" font-family="Times,serif" font-size="14.00"> </text>
<polygon fill="white" stroke="transparent" points="426,-84 426,-105 442,-105 442,-84 426,-84"/>
<polygon fill="none" stroke="black" points="426,-84 426,-105 442,-105 442,-84 426,-84"/>
<text text-anchor="start" x="431.5" y="-90.8" font-family="Times,serif" font-size="14.00"> </text>
<polygon fill="gray" stroke="transparent" points="426,-61 426,-82 442,-82 442,-61 426,-61"/>
<polygon fill="none" stroke="black" points="426,-61 426,-82 442,-82 442,-61 426,-61"/>
<text text-anchor="start" x="431.5" y="-67.8" font-family="Times,serif" font-size="14.00" fill="gray"> </text>
<polygon fill="none" stroke="black" points="423,-58.5 423,-269.5 445,-269.5 445,-58.5 423,-58.5"/>
</g>
<!-- mulle__pointerarray&#45;&gt;alloca -->
<g id="edge1" class="edge">
<title>mulle__pointerarray:_&#45;&gt;alloca:cell0</title>
<path fill="none" stroke="black" d="M387.58,-211.53C403.22,-218.27 400.87,-245.29 415.14,-253.58"/>
<ellipse fill="black" stroke="black" cx="383.43" cy="-210.74" rx="4" ry="4"/>
<polygon fill="black" stroke="black" points="425,-256 414.21,-257.98 420.14,-254.81 415.29,-253.61 415.29,-253.61 415.29,-253.61 420.14,-254.81 416.36,-249.24 425,-256 425,-256"/>
</g>
<!-- mulle__pointerarray&#45;&gt;alloca -->
<g id="edge2" class="edge">
<title>mulle__pointerarray:_&#45;&gt;alloca:cell4</title>
<path fill="none" stroke="black" d="M387.5,-185.84C399.74,-181.98 403.72,-169.54 415.15,-164.83"/>
<ellipse fill="black" stroke="black" cx="383.46" cy="-186.43" rx="4" ry="4"/>
<polygon fill="black" stroke="black" points="425,-163 415.99,-169.25 420.08,-163.91 415.17,-164.83 415.17,-164.83 415.17,-164.83 420.08,-163.91 414.35,-160.4 425,-163 425,-163"/>
</g>
<!-- mulle__pointerarray&#45;&gt;alloca -->
<g id="edge3" class="edge">
<title>mulle__pointerarray:_&#45;&gt;alloca:sentinel</title>
<path fill="none" stroke="black" d="M387.5,-162.82C416.72,-153.07 388.5,-85.58 414.92,-73.01"/>
<ellipse fill="black" stroke="black" cx="383.46" cy="-163.42" rx="4" ry="4"/>
<polygon fill="black" stroke="black" points="425,-71 416.07,-77.37 420.1,-71.98 415.19,-72.96 415.19,-72.96 415.19,-72.96 420.1,-71.98 414.31,-68.55 425,-71 425,-71"/>
</g>
</g>
</svg>
