<?xml version="1.0" encoding="UTF-8" standalone="no"?>
<!DOCTYPE svg PUBLIC "-//W3C//DTD SVG 1.1//EN"
 "http://www.w3.org/Graphics/SVG/1.1/DTD/svg11.dtd">
<!-- Generated by graphviz version 2.43.0 (0)
 -->
<!-- Title: %3 Pages: 1 -->
<svg width="485pt" height="297pt"
 viewBox="0.00 0.00 485.00 297.00" xmlns="http://www.w3.org/2000/svg" xmlns:xlink="http://www.w3.org/1999/xlink">
<g id="graph0" class="graph" transform="scale(1 1) rotate(0) translate(4 293)">
<title>%3</title>
<polygon fill="white" stroke="transparent" points="-4,4 -4,-293 481,-293 481,4 -4,4"/>
<g id="clust1" class="cluster">
<title>cluster_main</title>
<polygon fill="none" stroke="black" points="8,-45 8,-281 469,-281 469,-45 8,-45"/>
</g>
<!-- legend -->
<g id="node1" class="node">
<title>legend</title>
<text text-anchor="middle" x="202.5" y="-13" font-family="Arial Bold" font-size="20.00" fill="gray">Stack</text>
</g>
<!-- mulle__pointerarray -->
<g id="node2" class="node">
<title>mulle__pointerarray</title>
<polygon fill="blue" stroke="transparent" points="27.5,-233 27.5,-254 378.5,-254 378.5,-233 27.5,-233"/>
<polygon fill="none" stroke="black" points="27.5,-233 27.5,-254 378.5,-254 378.5,-233 27.5,-233"/>
<text text-anchor="start" x="158" y="-239.8" font-family="Times,serif" font-size="14.00" fill="white">mulle_buffer</text>
<polygon fill="black" stroke="transparent" points="27.5,-210 27.5,-231 142.5,-231 142.5,-210 27.5,-210"/>
<polygon fill="none" stroke="black" points="27.5,-210 27.5,-231 142.5,-231 142.5,-210 27.5,-210"/>
<text text-anchor="start" x="54.5" y="-216.8" font-family="Times,serif" font-size="14.00" fill="white">_storage</text>
<polygon fill="none" stroke="black" points="144.5,-210 144.5,-231 378.5,-231 378.5,-210 144.5,-210"/>
<polygon fill="black" stroke="transparent" points="27.5,-187 27.5,-208 142.5,-208 142.5,-187 27.5,-187"/>
<polygon fill="none" stroke="black" points="27.5,-187 27.5,-208 142.5,-208 142.5,-187 27.5,-187"/>
<text text-anchor="start" x="66.5" y="-193.8" font-family="Times,serif" font-size="14.00" fill="white">_curr</text>
<polygon fill="none" stroke="black" points="144.5,-187 144.5,-208 378.5,-208 378.5,-187 144.5,-187"/>
<polygon fill="black" stroke="transparent" points="27.5,-164 27.5,-185 142.5,-185 142.5,-164 27.5,-164"/>
<polygon fill="none" stroke="black" points="27.5,-164 27.5,-185 142.5,-185 142.5,-164 27.5,-164"/>
<text text-anchor="start" x="53" y="-170.8" font-family="Times,serif" font-size="14.00" fill="white">_sentinel</text>
<polygon fill="none" stroke="black" points="144.5,-164 144.5,-185 378.5,-185 378.5,-164 144.5,-164"/>
<polygon fill="black" stroke="transparent" points="27.5,-141 27.5,-162 142.5,-162 142.5,-141 27.5,-141"/>
<polygon fill="none" stroke="black" points="27.5,-141 27.5,-162 142.5,-162 142.5,-141 27.5,-141"/>
<text text-anchor="start" x="30.5" y="-147.8" font-family="Times,serif" font-size="14.00" fill="white">_initial_storage</text>
<polygon fill="none" stroke="black" points="144.5,-141 144.5,-162 378.5,-162 378.5,-141 144.5,-141"/>
<polygon fill="black" stroke="transparent" points="27.5,-118 27.5,-139 142.5,-139 142.5,-118 27.5,-118"/>
<polygon fill="none" stroke="black" points="27.5,-118 27.5,-139 142.5,-139 142.5,-118 27.5,-118"/>
<text text-anchor="start" x="65.5" y="-124.8" font-family="Times,serif" font-size="14.00" fill="white">_type</text>
<polygon fill="none" stroke="black" points="144.5,-118 144.5,-139 378.5,-139 378.5,-118 144.5,-118"/>
<text text-anchor="start" x="147.5" y="-124.8" font-family="Times,serif" font-size="14.00">MULLE_BUFFER_IS_FLEXIBLE</text>
<polygon fill="black" stroke="transparent" points="27.5,-95 27.5,-116 142.5,-116 142.5,-95 27.5,-95"/>
<polygon fill="none" stroke="black" points="27.5,-95 27.5,-116 142.5,-116 142.5,-95 27.5,-95"/>
<text text-anchor="start" x="67.5" y="-101.8" font-family="Times,serif" font-size="14.00" fill="white">_size</text>
<polygon fill="none" stroke="black" points="144.5,-95 144.5,-116 378.5,-116 378.5,-95 144.5,-95"/>
<text text-anchor="start" x="256.5" y="-101.8" font-family="Times,serif" font-size="14.00">8</text>
<polygon fill="black" stroke="transparent" points="27.5,-72 27.5,-93 142.5,-93 142.5,-72 27.5,-72"/>
<polygon fill="none" stroke="black" points="27.5,-72 27.5,-93 142.5,-93 142.5,-72 27.5,-72"/>
<text text-anchor="start" x="50" y="-78.8" font-family="Times,serif" font-size="14.00" fill="white">_allocator</text>
<polygon fill="none" stroke="black" points="144.5,-72 144.5,-93 378.5,-93 378.5,-72 144.5,-72"/>
<text text-anchor="start" x="172" y="-78.8" font-family="Times,serif" font-size="14.00">&amp;mulle_default_allocator</text>
<polygon fill="none" stroke="black" points="24,-69 24,-257 381,-257 381,-69 24,-69"/>
</g>
<!-- alloca -->
<g id="node3" class="node">
<title>alloca</title>
<polygon fill="yellow" stroke="transparent" points="426,-244 426,-265 442,-265 442,-244 426,-244"/>
<polygon fill="none" stroke="black" points="426,-244 426,-265 442,-265 442,-244 426,-244"/>
<text text-anchor="start" x="429" y="-250.8" font-family="Times,serif" font-size="14.00">V</text>
<polygon fill="yellow" stroke="transparent" points="426,-221 426,-242 442,-242 442,-221 426,-221"/>
<polygon fill="none" stroke="black" points="426,-221 426,-242 442,-242 442,-221 426,-221"/>
<text text-anchor="start" x="431" y="-227.8" font-family="Times,serif" font-size="14.00">f</text>
<polygon fill="yellow" stroke="transparent" points="426,-198 426,-219 442,-219 442,-198 426,-198"/>
<polygon fill="none" stroke="black" points="426,-198 426,-219 442,-219 442,-198 426,-198"/>
<text text-anchor="start" x="429" y="-204.8" font-family="Times,serif" font-size="14.00">L</text>
<polygon fill="yellow" stroke="transparent" points="426,-175 426,-196 442,-196 442,-175 426,-175"/>
<polygon fill="none" stroke="black" points="426,-175 426,-196 442,-196 442,-175 426,-175"/>
<text text-anchor="start" x="430.5" y="-181.8" font-family="Times,serif" font-size="14.00">_</text>
<polygon fill="white" stroke="transparent" points="426,-152 426,-173 442,-173 442,-152 426,-152"/>
<polygon fill="none" stroke="black" points="426,-152 426,-173 442,-173 442,-152 426,-152"/>
<text text-anchor="start" x="431.5" y="-158.8" font-family="Times,serif" font-size="14.00"> </text>
<polygon fill="white" stroke="transparent" points="426,-129 426,-150 442,-150 442,-129 426,-129"/>
<polygon fill="none" stroke="black" points="426,-129 426,-150 442,-150 442,-129 426,-129"/>
<text text-anchor="start" x="431.5" y="-135.8" font-family="Times,serif" font-size="14.00"> </text>
<polygon fill="white" stroke="transparent" points="426,-106 426,-127 442,-127 442,-106 426,-106"/>
<polygon fill="none" stroke="black" points="426,-106 426,-127 442,-127 442,-106 426,-106"/>
<text text-anchor="start" x="431.5" y="-112.8" font-family="Times,serif" font-size="14.00"> </text>
<polygon fill="white" stroke="transparent" points="426,-83 426,-104 442,-104 442,-83 426,-83"/>
<polygon fill="none" stroke="black" points="426,-83 426,-104 442,-104 442,-83 426,-83"/>
<text text-anchor="start" x="431.5" y="-89.8" font-family="Times,serif" font-size="14.00"> </text>
<polygon fill="gray" stroke="transparent" points="426,-60 426,-81 442,-81 442,-60 426,-60"/>
<polygon fill="none" stroke="black" points="426,-60 426,-81 442,-81 442,-60 426,-60"/>
<text text-anchor="start" x="431.5" y="-66.8" font-family="Times,serif" font-size="14.00" fill="gray"> </text>
<polygon fill="none" stroke="black" points="423,-57.5 423,-268.5 445,-268.5 445,-57.5 423,-57.5"/>
</g>
<!-- mulle__pointerarray&#45;&gt;alloca -->
<g id="edge1" class="edge">
<title>mulle__pointerarray:_&#45;&gt;alloca:cell0</title>
<path fill="none" stroke="black" d="M387.67,-222.46C401.04,-227.8 402.73,-246.28 415.1,-252.74"/>
<ellipse fill="black" stroke="black" cx="383.44" cy="-221.7" rx="4" ry="4"/>
<polygon fill="black" stroke="black" points="425,-255 414.25,-257.16 420.13,-253.89 415.25,-252.78 415.25,-252.78 415.25,-252.78 420.13,-253.89 416.25,-248.39 425,-255 425,-255"/>
</g>
<!-- mulle__pointerarray&#45;&gt;alloca -->
<g id="edge2" class="edge">
<title>mulle__pointerarray:_&#45;&gt;alloca:cell0</title>
<path fill="none" stroke="black" d="M387.77,-152.17C420.51,-162.66 384.66,-240.54 415.14,-253.25"/>
<ellipse fill="black" stroke="black" cx="383.46" cy="-151.56" rx="4" ry="4"/>
<polygon fill="black" stroke="black" points="425,-255 414.37,-257.68 420.08,-254.13 415.15,-253.25 415.15,-253.25 415.15,-253.25 420.08,-254.13 415.94,-248.82 425,-255 425,-255"/>
</g>
<!-- mulle__pointerarray&#45;&gt;alloca -->
<g id="edge3" class="edge">
<title>mulle__pointerarray:_&#45;&gt;alloca:cell4</title>
<path fill="none" stroke="black" d="M387.8,-196.45C401.31,-190.8 402.5,-171.24 414.95,-164.39"/>
<ellipse fill="black" stroke="black" cx="383.43" cy="-197.27" rx="4" ry="4"/>
<polygon fill="black" stroke="black" points="425,-162 416.31,-168.69 420.14,-163.16 415.27,-164.31 415.27,-164.31 415.27,-164.31 420.14,-163.16 414.23,-159.94 425,-162 425,-162"/>
</g>
<!-- mulle__pointerarray&#45;&gt;alloca -->
<g id="edge4" class="edge">
<title>mulle__pointerarray:_&#45;&gt;alloca:sentinel</title>
<path fill="none" stroke="black" d="M387.83,-173.82C420.8,-163.23 384.38,-84.6 415.07,-71.77"/>
<ellipse fill="black" stroke="black" cx="383.46" cy="-174.44" rx="4" ry="4"/>
<polygon fill="black" stroke="black" points="425,-70 415.94,-76.18 420.08,-70.88 415.15,-71.75 415.15,-71.75 415.15,-71.75 420.08,-70.88 414.37,-67.32 425,-70 425,-70"/>
</g>
</g>
</svg>
